<svg xmlns="http://www.w3.org/2000/svg" class="viz" width="1040" height="556" viewBox="0 0 1040 556" role="img">
<style>
.viz { --surface:#fcfcfb; --ink:#0b0b0b; --ink2:#52514e; --muted:#898781; --grid:#e1e0d9;
  --axis:#c3c2b7; --s1:#2a78d6; --s2:#eb6834; --s3:#1baf7a;
  --h0:#cde2fb; --h1:#9ec5f4; --h2:#6da7ec; --h3:#3987e5; --h4:#256abf; --h5:#184f95; --h6:#0d366b; }
@media (prefers-color-scheme: dark) {
  .viz { --surface:#1a1a19; --ink:#ffffff; --ink2:#c3c2b7; --grid:#2c2c2a; --axis:#383835;
    --s1:#3987e5; --s2:#d95926; --s3:#199e70;
    --h0:#0d366b; --h1:#104281; --h2:#184f95; --h3:#1c5cab; --h4:#256abf; --h5:#3987e5; --h6:#6da7ec; } }
.viz text { font-family:system-ui, -apple-system, "Segoe UI", sans-serif; fill:var(--ink2); font-size:11px; }
.viz .title { fill:var(--ink); font-size:15px; font-weight:600; }
.viz .subtitle { fill:var(--ink2); font-size:12px; }
.viz .panel { fill:var(--ink); font-size:12px; font-weight:600; }
.viz .muted { fill:var(--muted); }
.viz .value { fill:var(--ink); font-weight:600; }
.viz .tick { font-variant-numeric:tabular-nums; fill:var(--muted); }
.viz .grid { stroke:var(--grid); stroke-width:1; }
.viz .axis { stroke:var(--axis); stroke-width:1; }
.viz .ref { stroke:var(--muted); stroke-width:1; }
.viz .line1 { stroke:var(--s1); stroke-width:2; fill:none; stroke-linejoin:round; stroke-linecap:round; }
.viz .line0, .viz .line2, .viz .line3 { stroke-width:1.5; fill:none; stroke-linejoin:round; stroke-linecap:round; }
.viz .line0 { stroke:var(--ink2); }
.viz .line2 { stroke:var(--s2); }
.viz .line3 { stroke:var(--s3); }
.viz .strip { fill:transparent; }
.viz .strip:hover { fill:var(--grid); fill-opacity:0.5; }
.viz .dot1 { fill:var(--s1); stroke:var(--surface); stroke-width:2; }
.viz .dot2 { fill:var(--s2); stroke:var(--surface); stroke-width:2; }
.viz .dot3 { fill:var(--s3); stroke:var(--surface); stroke-width:2; }
.viz .dot1s { fill:var(--s1); fill-opacity:0.55; }
.viz .arrow { fill:var(--s1); }
.viz .hit { fill:transparent; }
</style>
<rect width="1040" height="556" fill="var(--surface)"/>
<text class="title" x="24" y="30">Fitting against generalising, by question type</text>
<text class="subtitle" x="24" y="50">Each panel has its own scale. In-distribution: the fixed training-file sample, mostly rows trained on.</text>
<defs><marker id="arr" viewBox="0 0 10 10" refX="9" refY="5" markerWidth="7" markerHeight="7" orient="auto-start-reverse"><path class="arrow" d="M0,1 L10,5 L0,9 z"/></marker></defs>
<line class="line1" x1="24" x2="42" y1="74" y2="74"/><circle class="dot1" cx="33" cy="74" r="4"/><text x="48" y="78">adopted as the default recipe</text>
<rect class="dot3" x="254.6" y="69" width="10" height="10" rx="2"/><text x="270.6" y="78">scaling test: torso only</text>
<line class="grid" x1="88.0" x2="338.66666666666663" y1="464.0" y2="464.0"/>
<text class="tick" x="82.0" y="467.5" text-anchor="end">0.550</text>
<line class="grid" x1="88.0" x2="338.66666666666663" y1="379.0" y2="379.0"/>
<text class="tick" x="82.0" y="382.5" text-anchor="end">0.575</text>
<line class="grid" x1="88.0" x2="338.66666666666663" y1="294.0" y2="294.0"/>
<text class="tick" x="82.0" y="297.5" text-anchor="end">0.600</text>
<line class="grid" x1="88.0" x2="338.66666666666663" y1="209.0" y2="209.0"/>
<text class="tick" x="82.0" y="212.5" text-anchor="end">0.625</text>
<line class="grid" x1="88.0" x2="338.66666666666663" y1="124.0" y2="124.0"/>
<text class="tick" x="82.0" y="127.5" text-anchor="end">0.650</text>
<line class="grid" x1="88.0" x2="88.0" y1="124" y2="464"/>
<text class="tick" x="88.0" y="480" text-anchor="middle">0.92</text>
<line class="grid" x1="171.6" x2="171.6" y1="124" y2="464"/>
<text class="tick" x="171.6" y="480" text-anchor="middle">0.94</text>
<line class="grid" x1="255.1" x2="255.1" y1="124" y2="464"/>
<text class="tick" x="255.1" y="480" text-anchor="middle">0.96</text>
<line class="grid" x1="338.7" x2="338.7" y1="124" y2="464"/>
<text class="tick" x="338.7" y="480" text-anchor="middle">0.98</text>
<line class="axis" x1="88.0" x2="338.66666666666663" y1="464" y2="464"/>
<text class="panel" x="48.0" y="110">noul (held-out: sarcasm)</text>
<text class="muted" x="338.66666666666663" y="498" text-anchor="end">in-distribution accuracy &#8594;</text>
<text class="muted" x="334.66666666666663" y="138" text-anchor="end">better: right and up</text>
<line class="line1" x1="182.8" y1="193.7" x2="142.3" y2="383.1" marker-end="url(#arr)"/>
<line class="line1" x1="142.3" y1="383.1" x2="169.9" y2="196.8" marker-end="url(#arr)"/>
<line class="line1" x1="169.9" y1="196.8" x2="257.2" y2="193.7" marker-end="url(#arr)"/>
<line class="line1" x1="257.2" y1="193.7" x2="260.1" y2="246.1" marker-end="url(#arr)"/>
<line class="line1" x1="260.1" y1="246.1" x2="270.6" y2="319.8" marker-end="url(#arr)"/>
<line class="line1" x1="270.6" y1="319.8" x2="260.1" y2="249.1" marker-end="url(#arr)"/>
<line class="line1" x1="260.1" y1="249.1" x2="264.7" y2="249.1" marker-end="url(#arr)"/>
<g><title>Qwen3-1.7B, scaling test, noul: in-distribution 0.956, held-out 0.606</title><circle class="hit" cx="237.1" cy="273.6" r="11"/><rect class="dot3" x="232.1" y="268.6" width="10" height="10" rx="2"/></g>
<text x="229.1" y="277.6" text-anchor="end">1.7B</text>
<g><title>Qwen3-4B, scaling test, noul: in-distribution 0.968, held-out 0.616</title><circle class="hit" cx="289.4" cy="241.3" r="11"/><rect class="dot3" x="284.4" y="236.3" width="10" height="10" rx="2"/></g>
<text x="297.4" y="233.3" text-anchor="start">4B</text>
<g><title>v4, noul: in-distribution 0.943, held-out 0.629</title><circle class="hit" cx="182.8" cy="193.7" r="11"/><circle class="dot1" cx="182.8" cy="193.7" r="5"/></g>
<text x="190.8" y="185.7" text-anchor="start">v4</text>
<g><title>v5, noul: in-distribution 0.933, held-out 0.574</title><circle class="hit" cx="142.3" cy="383.1" r="11"/><circle class="dot1" cx="142.3" cy="383.1" r="5"/></g>
<g><title>v7, noul: in-distribution 0.940, held-out 0.629</title><circle class="hit" cx="169.9" cy="196.8" r="11"/><circle class="dot1" cx="169.9" cy="196.8" r="5"/></g>
<g><title>v13, noul: in-distribution 0.961, held-out 0.629</title><circle class="hit" cx="257.2" cy="193.7" r="11"/><circle class="dot1" cx="257.2" cy="193.7" r="5"/></g>
<g><title>v14, noul: in-distribution 0.961, held-out 0.614</title><circle class="hit" cx="260.1" cy="246.1" r="11"/><circle class="dot1" cx="260.1" cy="246.1" r="5"/></g>
<g><title>v16, noul: in-distribution 0.964, held-out 0.592</title><circle class="hit" cx="270.6" cy="319.8" r="11"/><circle class="dot1" cx="270.6" cy="319.8" r="5"/></g>
<g><title>v17, noul: in-distribution 0.961, held-out 0.613</title><circle class="hit" cx="260.1" cy="249.1" r="11"/><circle class="dot1" cx="260.1" cy="249.1" r="5"/></g>
<g><title>v18, noul: in-distribution 0.962, held-out 0.613</title><circle class="hit" cx="264.7" cy="249.1" r="11"/><circle class="dot1" cx="264.7" cy="249.1" r="5"/></g>
<text x="272.7" y="263.1" text-anchor="start">v18</text>
<line class="grid" x1="426.66666666666663" x2="677.3333333333333" y1="464.0" y2="464.0"/>
<text class="tick" x="420.66666666666663" y="467.5" text-anchor="end">0.70</text>
<line class="grid" x1="426.66666666666663" x2="677.3333333333333" y1="350.7" y2="350.7"/>
<text class="tick" x="420.66666666666663" y="354.2" text-anchor="end">0.72</text>
<line class="grid" x1="426.66666666666663" x2="677.3333333333333" y1="237.3" y2="237.3"/>
<text class="tick" x="420.66666666666663" y="240.8" text-anchor="end">0.74</text>
<line class="grid" x1="426.66666666666663" x2="677.3333333333333" y1="124.0" y2="124.0"/>
<text class="tick" x="420.66666666666663" y="127.5" text-anchor="end">0.76</text>
<line class="grid" x1="426.7" x2="426.7" y1="124" y2="464"/>
<text class="tick" x="426.7" y="480" text-anchor="middle">0.92</text>
<line class="grid" x1="476.8" x2="476.8" y1="124" y2="464"/>
<text class="tick" x="476.8" y="480" text-anchor="middle">0.93</text>
<line class="grid" x1="526.9" x2="526.9" y1="124" y2="464"/>
<text class="tick" x="526.9" y="480" text-anchor="middle">0.94</text>
<line class="grid" x1="577.1" x2="577.1" y1="124" y2="464"/>
<text class="tick" x="577.1" y="480" text-anchor="middle">0.95</text>
<line class="grid" x1="627.2" x2="627.2" y1="124" y2="464"/>
<text class="tick" x="627.2" y="480" text-anchor="middle">0.96</text>
<line class="grid" x1="677.3" x2="677.3" y1="124" y2="464"/>
<text class="tick" x="677.3" y="480" text-anchor="middle">0.97</text>
<line class="axis" x1="426.66666666666663" x2="677.3333333333333" y1="464" y2="464"/>
<text class="panel" x="386.66666666666663" y="110">choice (held-out: emotion, massive_intent)</text>
<text class="muted" x="677.3333333333333" y="498" text-anchor="end">in-distribution accuracy &#8594;</text>
<text class="muted" x="673.3333333333333" y="138" text-anchor="end">better: right and up</text>
<line class="line1" x1="519.4" y1="329.7" x2="521.4" y2="339.9" marker-end="url(#arr)"/>
<line class="line1" x1="521.4" y1="339.9" x2="562.0" y2="307.0" marker-end="url(#arr)"/>
<line class="line1" x1="562.0" y1="307.0" x2="623.7" y2="315.0" marker-end="url(#arr)"/>
<line class="line1" x1="623.7" y1="315.0" x2="626.2" y2="301.9" marker-end="url(#arr)"/>
<line class="line1" x1="626.2" y1="301.9" x2="621.2" y2="333.1" marker-end="url(#arr)"/>
<line class="line1" x1="621.2" y1="333.1" x2="610.2" y2="315.0" marker-end="url(#arr)"/>
<line class="line1" x1="610.2" y1="315.0" x2="596.6" y2="301.9" marker-end="url(#arr)"/>
<g><title>Qwen3-1.7B, scaling test, choice: in-distribution 0.944, held-out 0.728</title><circle class="hit" cx="548.0" cy="305.9" r="11"/><rect class="dot3" x="543.0" y="300.9" width="10" height="10" rx="2"/></g>
<text x="540.0" y="309.9" text-anchor="end">1.7B</text>
<g><title>Qwen3-4B, scaling test, choice: in-distribution 0.944, held-out 0.733</title><circle class="hit" cx="546.0" cy="277.0" r="11"/><rect class="dot3" x="541.0" y="272.0" width="10" height="10" rx="2"/></g>
<text x="538.0" y="273.0" text-anchor="end">4B</text>
<g><title>v4, choice: in-distribution 0.939, held-out 0.724</title><circle class="hit" cx="519.4" cy="329.7" r="11"/><circle class="dot1" cx="519.4" cy="329.7" r="5"/></g>
<text x="527.4" y="321.7" text-anchor="start">v4</text>
<g><title>v5, choice: in-distribution 0.939, held-out 0.722</title><circle class="hit" cx="521.4" cy="339.9" r="11"/><circle class="dot1" cx="521.4" cy="339.9" r="5"/></g>
<g><title>v7, choice: in-distribution 0.947, held-out 0.728</title><circle class="hit" cx="562.0" cy="307.0" r="11"/><circle class="dot1" cx="562.0" cy="307.0" r="5"/></g>
<g><title>v13, choice: in-distribution 0.959, held-out 0.726</title><circle class="hit" cx="623.7" cy="315.0" r="11"/><circle class="dot1" cx="623.7" cy="315.0" r="5"/></g>
<g><title>v14, choice: in-distribution 0.960, held-out 0.729</title><circle class="hit" cx="626.2" cy="301.9" r="11"/><circle class="dot1" cx="626.2" cy="301.9" r="5"/></g>
<g><title>v16, choice: in-distribution 0.959, held-out 0.723</title><circle class="hit" cx="621.2" cy="333.1" r="11"/><circle class="dot1" cx="621.2" cy="333.1" r="5"/></g>
<g><title>v17, choice: in-distribution 0.957, held-out 0.726</title><circle class="hit" cx="610.2" cy="315.0" r="11"/><circle class="dot1" cx="610.2" cy="315.0" r="5"/></g>
<g><title>v18, choice: in-distribution 0.954, held-out 0.729</title><circle class="hit" cx="596.6" cy="301.9" r="11"/><circle class="dot1" cx="596.6" cy="301.9" r="5"/></g>
<text x="596.6" y="291.9" text-anchor="middle">v18</text>
<line class="grid" x1="765.3333333333333" x2="1015.9999999999999" y1="464.0" y2="464.0"/>
<text class="tick" x="759.3333333333333" y="467.5" text-anchor="end">0.3</text>
<line class="grid" x1="765.3333333333333" x2="1015.9999999999999" y1="379.0" y2="379.0"/>
<text class="tick" x="759.3333333333333" y="382.5" text-anchor="end">0.4</text>
<line class="grid" x1="765.3333333333333" x2="1015.9999999999999" y1="294.0" y2="294.0"/>
<text class="tick" x="759.3333333333333" y="297.5" text-anchor="end">0.5</text>
<line class="grid" x1="765.3333333333333" x2="1015.9999999999999" y1="209.0" y2="209.0"/>
<text class="tick" x="759.3333333333333" y="212.5" text-anchor="end">0.6</text>
<line class="grid" x1="765.3333333333333" x2="1015.9999999999999" y1="124.0" y2="124.0"/>
<text class="tick" x="759.3333333333333" y="127.5" text-anchor="end">0.7</text>
<line class="grid" x1="765.3" x2="765.3" y1="124" y2="464"/>
<text class="tick" x="765.3" y="480" text-anchor="middle">0.56</text>
<line class="grid" x1="828.0" x2="828.0" y1="124" y2="464"/>
<text class="tick" x="828.0" y="480" text-anchor="middle">0.58</text>
<line class="grid" x1="890.7" x2="890.7" y1="124" y2="464"/>
<text class="tick" x="890.7" y="480" text-anchor="middle">0.60</text>
<line class="grid" x1="953.3" x2="953.3" y1="124" y2="464"/>
<text class="tick" x="953.3" y="480" text-anchor="middle">0.62</text>
<line class="grid" x1="1016.0" x2="1016.0" y1="124" y2="464"/>
<text class="tick" x="1016.0" y="480" text-anchor="middle">0.64</text>
<line class="axis" x1="765.3333333333333" x2="1015.9999999999999" y1="464" y2="464"/>
<text class="panel" x="725.3333333333333" y="110">score (held-out: hate_severity)</text>
<text class="muted" x="1015.9999999999999" y="498" text-anchor="end">in-distribution accuracy &#8594;</text>
<text class="muted" x="1011.9999999999999" y="138" text-anchor="end">better: right and up</text>
<line class="line1" x1="861.5" y1="305.6" x2="813.3" y2="362.1" marker-end="url(#arr)"/>
<line class="line1" x1="813.3" y1="362.1" x2="823.0" y2="300.8" marker-end="url(#arr)"/>
<line class="line1" x1="823.0" y1="300.8" x2="919.2" y2="324.6" marker-end="url(#arr)"/>
<line class="line1" x1="919.2" y1="324.6" x2="943.9" y2="351.4" marker-end="url(#arr)"/>
<line class="line1" x1="943.9" y1="351.4" x2="852.8" y2="354.4" marker-end="url(#arr)"/>
<line class="line1" x1="852.8" y1="354.4" x2="921.7" y2="333.5" marker-end="url(#arr)"/>
<line class="line1" x1="921.7" y1="333.5" x2="931.7" y2="335.9" marker-end="url(#arr)"/>
<g><title>Qwen3-1.7B, scaling test, score: in-distribution 0.608, held-out 0.384</title><circle class="hit" cx="914.8" cy="393.0" r="11"/><rect class="dot3" x="909.8" y="388.0" width="10" height="10" rx="2"/></g>
<text x="922.8" y="385.0" text-anchor="start">1.7B</text>
<g><title>Qwen3-4B, scaling test, score: in-distribution 0.607, held-out 0.613</title><circle class="hit" cx="911.3" cy="197.9" r="11"/><rect class="dot3" x="906.3" y="192.9" width="10" height="10" rx="2"/></g>
<text x="919.3" y="189.9" text-anchor="start">4B</text>
<g><title>v4, score: in-distribution 0.591, held-out 0.486</title><circle class="hit" cx="861.5" cy="305.6" r="11"/><circle class="dot1" cx="861.5" cy="305.6" r="5"/></g>
<text x="869.5" y="297.6" text-anchor="start">v4</text>
<g><title>v5, score: in-distribution 0.575, held-out 0.420</title><circle class="hit" cx="813.3" cy="362.1" r="11"/><circle class="dot1" cx="813.3" cy="362.1" r="5"/></g>
<g><title>v7, score: in-distribution 0.578, held-out 0.492</title><circle class="hit" cx="823.0" cy="300.8" r="11"/><circle class="dot1" cx="823.0" cy="300.8" r="5"/></g>
<g><title>v13, score: in-distribution 0.609, held-out 0.464</title><circle class="hit" cx="919.2" cy="324.6" r="11"/><circle class="dot1" cx="919.2" cy="324.6" r="5"/></g>
<g><title>v14, score: in-distribution 0.617, held-out 0.432</title><circle class="hit" cx="943.9" cy="351.4" r="11"/><circle class="dot1" cx="943.9" cy="351.4" r="5"/></g>
<g><title>v16, score: in-distribution 0.588, held-out 0.429</title><circle class="hit" cx="852.8" cy="354.4" r="11"/><circle class="dot1" cx="852.8" cy="354.4" r="5"/></g>
<g><title>v17, score: in-distribution 0.610, held-out 0.454</title><circle class="hit" cx="921.7" cy="333.5" r="11"/><circle class="dot1" cx="921.7" cy="333.5" r="5"/></g>
<g><title>v18, score: in-distribution 0.613, held-out 0.451</title><circle class="hit" cx="931.7" cy="335.9" r="11"/><circle class="dot1" cx="931.7" cy="335.9" r="5"/></g>
<text x="939.7" y="327.9" text-anchor="start">v18</text>
<text class="muted" x="24" y="542">Held-out rows per type: noul 1,104 (one standard error ~0.015), choice 3,467 (~0.008), score 1,429 (~0.013). Line: v4 -&gt; v5 -&gt; v7 -&gt; v13 -&gt; v14 -&gt; v16 -&gt; v17 -&gt; v18; labelled at its ends.</text>
</svg>
