<svg xmlns="http://www.w3.org/2000/svg" class="viz" width="922" height="446" viewBox="0 0 922 446" role="img">
<style>
.viz { --surface:#fcfcfb; --ink:#0b0b0b; --ink2:#52514e; --muted:#898781; --grid:#e1e0d9;
  --axis:#c3c2b7; --s1:#2a78d6; --s2:#eb6834; --s3:#1baf7a;
  --h0:#cde2fb; --h1:#9ec5f4; --h2:#6da7ec; --h3:#3987e5; --h4:#256abf; --h5:#184f95; --h6:#0d366b; }
@media (prefers-color-scheme: dark) {
  .viz { --surface:#1a1a19; --ink:#ffffff; --ink2:#c3c2b7; --grid:#2c2c2a; --axis:#383835;
    --s1:#3987e5; --s2:#d95926; --s3:#199e70;
    --h0:#0d366b; --h1:#104281; --h2:#184f95; --h3:#1c5cab; --h4:#256abf; --h5:#3987e5; --h6:#6da7ec; } }
.viz text { font-family:system-ui, -apple-system, "Segoe UI", sans-serif; fill:var(--ink2); font-size:11px; }
.viz .title { fill:var(--ink); font-size:15px; font-weight:600; }
.viz .subtitle { fill:var(--ink2); font-size:12px; }
.viz .panel { fill:var(--ink); font-size:12px; font-weight:600; }
.viz .muted { fill:var(--muted); }
.viz .value { fill:var(--ink); font-weight:600; }
.viz .tick { font-variant-numeric:tabular-nums; fill:var(--muted); }
.viz .grid { stroke:var(--grid); stroke-width:1; }
.viz .axis { stroke:var(--axis); stroke-width:1; }
.viz .ref { stroke:var(--muted); stroke-width:1; }
.viz .line1 { stroke:var(--s1); stroke-width:2; fill:none; stroke-linejoin:round; stroke-linecap:round; }
.viz .line0, .viz .line2, .viz .line3 { stroke-width:1.5; fill:none; stroke-linejoin:round; stroke-linecap:round; }
.viz .line0 { stroke:var(--ink2); }
.viz .line2 { stroke:var(--s2); }
.viz .line3 { stroke:var(--s3); }
.viz .strip { fill:transparent; }
.viz .strip:hover { fill:var(--grid); fill-opacity:0.5; }
.viz .dot1 { fill:var(--s1); stroke:var(--surface); stroke-width:2; }
.viz .dot2 { fill:var(--s2); stroke:var(--surface); stroke-width:2; }
.viz .dot3 { fill:var(--s3); stroke:var(--surface); stroke-width:2; }
.viz .dot1s { fill:var(--s1); fill-opacity:0.55; }
.viz .arrow { fill:var(--s1); }
.viz .hit { fill:transparent; }
</style>
<rect width="922" height="446" fill="var(--surface)"/>
<text class="title" x="24" y="30">JevBench hard tier by family and generation</text>
<text class="subtitle" x="24" y="50">Accuracy within each hard-tier family (5-19 tasks each); decider-2b v11 at right for reference.</text>
<text x="156.6" y="88" text-anchor="middle">v5</text>
<text x="200.6" y="88" text-anchor="middle">v6</text>
<text x="244.6" y="88" text-anchor="middle">v7</text>
<text x="288.6" y="88" text-anchor="middle">v8</text>
<text x="332.6" y="88" text-anchor="middle">v9</text>
<text x="376.6" y="88" text-anchor="middle">v10</text>
<text x="420.6" y="88" text-anchor="middle">v11a</text>
<text x="464.6" y="88" text-anchor="middle">v11b</text>
<text x="508.6" y="88" text-anchor="middle">v12</text>
<text x="552.6" y="88" text-anchor="middle">v13</text>
<text x="596.6" y="88" text-anchor="middle">v14</text>
<text x="640.6" y="88" text-anchor="middle">v15</text>
<text x="684.6" y="88" text-anchor="middle">v16</text>
<text x="728.6" y="88" text-anchor="middle">v17</text>
<text x="772.6" y="88" text-anchor="middle">v18</text>
<text x="816.6" y="88" text-anchor="middle">v19</text>
<text x="876.6" y="88" text-anchor="middle">dv11</text>
<text x="124.56" y="113.0" text-anchor="end">routing_hard</text>
<rect x="135.6" y="97" width="42" height="24" rx="3" fill="var(--h6)"><title>routing_hard, v5: 5/5</title></rect>
<rect x="179.6" y="97" width="42" height="24" rx="3" fill="var(--h6)"><title>routing_hard, v6: 5/5</title></rect>
<rect x="223.6" y="97" width="42" height="24" rx="3" fill="var(--h6)"><title>routing_hard, v7: 5/5</title></rect>
<rect x="267.6" y="97" width="42" height="24" rx="3" fill="var(--h4)"><title>routing_hard, v8: 3/5</title></rect>
<rect x="311.6" y="97" width="42" height="24" rx="3" fill="var(--h6)"><title>routing_hard, v9: 5/5</title></rect>
<rect x="355.6" y="97" width="42" height="24" rx="3" fill="var(--h5)"><title>routing_hard, v10: 4/5</title></rect>
<rect x="399.6" y="97" width="42" height="24" rx="3" fill="var(--h6)"><title>routing_hard, v11a: 5/5</title></rect>
<rect x="443.6" y="97" width="42" height="24" rx="3" fill="var(--h6)"><title>routing_hard, v11b: 5/5</title></rect>
<rect x="487.6" y="97" width="42" height="24" rx="3" fill="var(--h6)"><title>routing_hard, v12: 5/5</title></rect>
<rect x="531.6" y="97" width="42" height="24" rx="3" fill="var(--h6)"><title>routing_hard, v13: 5/5</title></rect>
<rect x="575.6" y="97" width="42" height="24" rx="3" fill="var(--h6)"><title>routing_hard, v14: 5/5</title></rect>
<rect x="619.6" y="97" width="42" height="24" rx="3" fill="var(--h6)"><title>routing_hard, v15: 5/5</title></rect>
<rect x="663.6" y="97" width="42" height="24" rx="3" fill="var(--h6)"><title>routing_hard, v16: 5/5</title></rect>
<rect x="707.6" y="97" width="42" height="24" rx="3" fill="var(--h6)"><title>routing_hard, v17: 5/5</title></rect>
<rect x="751.6" y="97" width="42" height="24" rx="3" fill="var(--h6)"><title>routing_hard, v18: 5/5</title></rect>
<rect x="795.6" y="97" width="42" height="24" rx="3" fill="var(--h6)"><title>routing_hard, v19: 5/5</title></rect>
<rect x="855.6" y="97" width="42" height="24" rx="3" fill="var(--h6)"><title>routing_hard, decider-2b v11: 5/5</title></rect>
<text x="124.56" y="139.0" text-anchor="end">trap</text>
<rect x="135.6" y="123" width="42" height="24" rx="3" fill="var(--h4)"><title>trap, v5: 5/8</title></rect>
<rect x="179.6" y="123" width="42" height="24" rx="3" fill="var(--h4)"><title>trap, v6: 5/8</title></rect>
<rect x="223.6" y="123" width="42" height="24" rx="3" fill="var(--h4)"><title>trap, v7: 5/8</title></rect>
<rect x="267.6" y="123" width="42" height="24" rx="3" fill="var(--h5)"><title>trap, v8: 6/8</title></rect>
<rect x="311.6" y="123" width="42" height="24" rx="3" fill="var(--h6)"><title>trap, v9: 8/8</title></rect>
<rect x="355.6" y="123" width="42" height="24" rx="3" fill="var(--h4)"><title>trap, v10: 5/8</title></rect>
<rect x="399.6" y="123" width="42" height="24" rx="3" fill="var(--h4)"><title>trap, v11a: 5/8</title></rect>
<rect x="443.6" y="123" width="42" height="24" rx="3" fill="var(--h3)"><title>trap, v11b: 4/8</title></rect>
<rect x="487.6" y="123" width="42" height="24" rx="3" fill="var(--h5)"><title>trap, v12: 6/8</title></rect>
<rect x="531.6" y="123" width="42" height="24" rx="3" fill="var(--h6)"><title>trap, v13: 7/8</title></rect>
<rect x="575.6" y="123" width="42" height="24" rx="3" fill="var(--h5)"><title>trap, v14: 6/8</title></rect>
<rect x="619.6" y="123" width="42" height="24" rx="3" fill="var(--h5)"><title>trap, v15: 6/8</title></rect>
<rect x="663.6" y="123" width="42" height="24" rx="3" fill="var(--h6)"><title>trap, v16: 8/8</title></rect>
<rect x="707.6" y="123" width="42" height="24" rx="3" fill="var(--h6)"><title>trap, v17: 7/8</title></rect>
<rect x="751.6" y="123" width="42" height="24" rx="3" fill="var(--h6)"><title>trap, v18: 7/8</title></rect>
<rect x="795.6" y="123" width="42" height="24" rx="3" fill="var(--h6)"><title>trap, v19: 7/8</title></rect>
<rect x="855.6" y="123" width="42" height="24" rx="3" fill="var(--h6)"><title>trap, decider-2b v11: 8/8</title></rect>
<text x="124.56" y="165.0" text-anchor="end">adversarial</text>
<rect x="135.6" y="149" width="42" height="24" rx="3" fill="var(--h3)"><title>adversarial, v5: 3/6</title></rect>
<rect x="179.6" y="149" width="42" height="24" rx="3" fill="var(--h3)"><title>adversarial, v6: 3/6</title></rect>
<rect x="223.6" y="149" width="42" height="24" rx="3" fill="var(--h4)"><title>adversarial, v7: 4/6</title></rect>
<rect x="267.6" y="149" width="42" height="24" rx="3" fill="var(--h5)"><title>adversarial, v8: 5/6</title></rect>
<rect x="311.6" y="149" width="42" height="24" rx="3" fill="var(--h3)"><title>adversarial, v9: 3/6</title></rect>
<rect x="355.6" y="149" width="42" height="24" rx="3" fill="var(--h4)"><title>adversarial, v10: 4/6</title></rect>
<rect x="399.6" y="149" width="42" height="24" rx="3" fill="var(--h3)"><title>adversarial, v11a: 3/6</title></rect>
<rect x="443.6" y="149" width="42" height="24" rx="3" fill="var(--h3)"><title>adversarial, v11b: 3/6</title></rect>
<rect x="487.6" y="149" width="42" height="24" rx="3" fill="var(--h5)"><title>adversarial, v12: 5/6</title></rect>
<rect x="531.6" y="149" width="42" height="24" rx="3" fill="var(--h5)"><title>adversarial, v13: 5/6</title></rect>
<rect x="575.6" y="149" width="42" height="24" rx="3" fill="var(--h5)"><title>adversarial, v14: 5/6</title></rect>
<rect x="619.6" y="149" width="42" height="24" rx="3" fill="var(--h5)"><title>adversarial, v15: 5/6</title></rect>
<rect x="663.6" y="149" width="42" height="24" rx="3" fill="var(--h5)"><title>adversarial, v16: 5/6</title></rect>
<rect x="707.6" y="149" width="42" height="24" rx="3" fill="var(--h6)"><title>adversarial, v17: 6/6</title></rect>
<rect x="751.6" y="149" width="42" height="24" rx="3" fill="var(--h5)"><title>adversarial, v18: 5/6</title></rect>
<rect x="795.6" y="149" width="42" height="24" rx="3" fill="var(--h4)"><title>adversarial, v19: 4/6</title></rect>
<rect x="855.6" y="149" width="42" height="24" rx="3" fill="var(--h6)"><title>adversarial, decider-2b v11: 6/6</title></rect>
<text x="124.56" y="191.0" text-anchor="end">judge_hard</text>
<rect x="135.6" y="175" width="42" height="24" rx="3" fill="var(--h2)"><title>judge_hard, v5: 7/17</title></rect>
<rect x="179.6" y="175" width="42" height="24" rx="3" fill="var(--h2)"><title>judge_hard, v6: 7/17</title></rect>
<rect x="223.6" y="175" width="42" height="24" rx="3" fill="var(--h2)"><title>judge_hard, v7: 7/17</title></rect>
<rect x="267.6" y="175" width="42" height="24" rx="3" fill="var(--h2)"><title>judge_hard, v8: 7/17</title></rect>
<rect x="311.6" y="175" width="42" height="24" rx="3" fill="var(--h2)"><title>judge_hard, v9: 7/17</title></rect>
<rect x="355.6" y="175" width="42" height="24" rx="3" fill="var(--h2)"><title>judge_hard, v10: 7/17</title></rect>
<rect x="399.6" y="175" width="42" height="24" rx="3" fill="var(--h2)"><title>judge_hard, v11a: 7/17</title></rect>
<rect x="443.6" y="175" width="42" height="24" rx="3" fill="var(--h2)"><title>judge_hard, v11b: 7/17</title></rect>
<rect x="487.6" y="175" width="42" height="24" rx="3" fill="var(--h2)"><title>judge_hard, v12: 7/17</title></rect>
<rect x="531.6" y="175" width="42" height="24" rx="3" fill="var(--h2)"><title>judge_hard, v13: 7/17</title></rect>
<rect x="575.6" y="175" width="42" height="24" rx="3" fill="var(--h2)"><title>judge_hard, v14: 7/17</title></rect>
<rect x="619.6" y="175" width="42" height="24" rx="3" fill="var(--h2)"><title>judge_hard, v15: 7/17</title></rect>
<rect x="663.6" y="175" width="42" height="24" rx="3" fill="var(--h2)"><title>judge_hard, v16: 7/17</title></rect>
<rect x="707.6" y="175" width="42" height="24" rx="3" fill="var(--h2)"><title>judge_hard, v17: 7/17</title></rect>
<rect x="751.6" y="175" width="42" height="24" rx="3" fill="var(--h2)"><title>judge_hard, v18: 7/17</title></rect>
<rect x="795.6" y="175" width="42" height="24" rx="3" fill="var(--h4)"><title>judge_hard, v19: 10/17</title></rect>
<rect x="855.6" y="175" width="42" height="24" rx="3" fill="var(--h4)"><title>judge_hard, decider-2b v11: 10/17</title></rect>
<text x="124.56" y="217.0" text-anchor="end">multi_hop</text>
<rect x="135.6" y="201" width="42" height="24" rx="3" fill="var(--h2)"><title>multi_hop, v5: 6/18</title></rect>
<rect x="179.6" y="201" width="42" height="24" rx="3" fill="var(--h2)"><title>multi_hop, v6: 6/18</title></rect>
<rect x="223.6" y="201" width="42" height="24" rx="3" fill="var(--h2)"><title>multi_hop, v7: 7/18</title></rect>
<rect x="267.6" y="201" width="42" height="24" rx="3" fill="var(--h2)"><title>multi_hop, v8: 7/18</title></rect>
<rect x="311.6" y="201" width="42" height="24" rx="3" fill="var(--h2)"><title>multi_hop, v9: 7/18</title></rect>
<rect x="355.6" y="201" width="42" height="24" rx="3" fill="var(--h1)"><title>multi_hop, v10: 4/18</title></rect>
<rect x="399.6" y="201" width="42" height="24" rx="3" fill="var(--h2)"><title>multi_hop, v11a: 7/18</title></rect>
<rect x="443.6" y="201" width="42" height="24" rx="3" fill="var(--h2)"><title>multi_hop, v11b: 7/18</title></rect>
<rect x="487.6" y="201" width="42" height="24" rx="3" fill="var(--h2)"><title>multi_hop, v12: 6/18</title></rect>
<rect x="531.6" y="201" width="42" height="24" rx="3" fill="var(--h2)"><title>multi_hop, v13: 6/18</title></rect>
<rect x="575.6" y="201" width="42" height="24" rx="3" fill="var(--h3)"><title>multi_hop, v14: 9/18</title></rect>
<rect x="619.6" y="201" width="42" height="24" rx="3" fill="var(--h3)"><title>multi_hop, v15: 9/18</title></rect>
<rect x="663.6" y="201" width="42" height="24" rx="3" fill="var(--h3)"><title>multi_hop, v16: 9/18</title></rect>
<rect x="707.6" y="201" width="42" height="24" rx="3" fill="var(--h3)"><title>multi_hop, v17: 9/18</title></rect>
<rect x="751.6" y="201" width="42" height="24" rx="3" fill="var(--h3)"><title>multi_hop, v18: 10/18</title></rect>
<rect x="795.6" y="201" width="42" height="24" rx="3" fill="var(--h3)"><title>multi_hop, v19: 8/18</title></rect>
<rect x="855.6" y="201" width="42" height="24" rx="3" fill="var(--h3)"><title>multi_hop, decider-2b v11: 10/18</title></rect>
<text x="124.56" y="243.0" text-anchor="end">tradeoff</text>
<rect x="135.6" y="227" width="42" height="24" rx="3" fill="var(--h2)"><title>tradeoff, v5: 2/6</title></rect>
<rect x="179.6" y="227" width="42" height="24" rx="3" fill="var(--h2)"><title>tradeoff, v6: 2/6</title></rect>
<rect x="223.6" y="227" width="42" height="24" rx="3" fill="var(--h4)"><title>tradeoff, v7: 4/6</title></rect>
<rect x="267.6" y="227" width="42" height="24" rx="3" fill="var(--h3)"><title>tradeoff, v8: 3/6</title></rect>
<rect x="311.6" y="227" width="42" height="24" rx="3" fill="var(--h2)"><title>tradeoff, v9: 2/6</title></rect>
<rect x="355.6" y="227" width="42" height="24" rx="3" fill="var(--h2)"><title>tradeoff, v10: 2/6</title></rect>
<rect x="399.6" y="227" width="42" height="24" rx="3" fill="var(--h3)"><title>tradeoff, v11a: 3/6</title></rect>
<rect x="443.6" y="227" width="42" height="24" rx="3" fill="var(--h2)"><title>tradeoff, v11b: 2/6</title></rect>
<rect x="487.6" y="227" width="42" height="24" rx="3" fill="var(--h2)"><title>tradeoff, v12: 2/6</title></rect>
<rect x="531.6" y="227" width="42" height="24" rx="3" fill="var(--h1)"><title>tradeoff, v13: 1/6</title></rect>
<rect x="575.6" y="227" width="42" height="24" rx="3" fill="var(--h2)"><title>tradeoff, v14: 2/6</title></rect>
<rect x="619.6" y="227" width="42" height="24" rx="3" fill="var(--h1)"><title>tradeoff, v15: 1/6</title></rect>
<rect x="663.6" y="227" width="42" height="24" rx="3" fill="var(--h4)"><title>tradeoff, v16: 4/6</title></rect>
<rect x="707.6" y="227" width="42" height="24" rx="3" fill="var(--h3)"><title>tradeoff, v17: 3/6</title></rect>
<rect x="751.6" y="227" width="42" height="24" rx="3" fill="var(--h3)"><title>tradeoff, v18: 3/6</title></rect>
<rect x="795.6" y="227" width="42" height="24" rx="3" fill="var(--h3)"><title>tradeoff, v19: 3/6</title></rect>
<rect x="855.6" y="227" width="42" height="24" rx="3" fill="var(--h3)"><title>tradeoff, decider-2b v11: 3/6</title></rect>
<text x="124.56" y="269.0" text-anchor="end">long_policy</text>
<rect x="135.6" y="253" width="42" height="24" rx="3" fill="var(--h2)"><title>long_policy, v5: 7/19</title></rect>
<rect x="179.6" y="253" width="42" height="24" rx="3" fill="var(--h2)"><title>long_policy, v6: 6/19</title></rect>
<rect x="223.6" y="253" width="42" height="24" rx="3" fill="var(--h2)"><title>long_policy, v7: 8/19</title></rect>
<rect x="267.6" y="253" width="42" height="24" rx="3" fill="var(--h3)"><title>long_policy, v8: 10/19</title></rect>
<rect x="311.6" y="253" width="42" height="24" rx="3" fill="var(--h2)"><title>long_policy, v9: 6/19</title></rect>
<rect x="355.6" y="253" width="42" height="24" rx="3" fill="var(--h2)"><title>long_policy, v10: 6/19</title></rect>
<rect x="399.6" y="253" width="42" height="24" rx="3" fill="var(--h2)"><title>long_policy, v11a: 6/19</title></rect>
<rect x="443.6" y="253" width="42" height="24" rx="3" fill="var(--h2)"><title>long_policy, v11b: 7/19</title></rect>
<rect x="487.6" y="253" width="42" height="24" rx="3" fill="var(--h2)"><title>long_policy, v12: 7/19</title></rect>
<rect x="531.6" y="253" width="42" height="24" rx="3" fill="var(--h2)"><title>long_policy, v13: 6/19</title></rect>
<rect x="575.6" y="253" width="42" height="24" rx="3" fill="var(--h2)"><title>long_policy, v14: 7/19</title></rect>
<rect x="619.6" y="253" width="42" height="24" rx="3" fill="var(--h2)"><title>long_policy, v15: 7/19</title></rect>
<rect x="663.6" y="253" width="42" height="24" rx="3" fill="var(--h2)"><title>long_policy, v16: 8/19</title></rect>
<rect x="707.6" y="253" width="42" height="24" rx="3" fill="var(--h2)"><title>long_policy, v17: 7/19</title></rect>
<rect x="751.6" y="253" width="42" height="24" rx="3" fill="var(--h3)"><title>long_policy, v18: 10/19</title></rect>
<rect x="795.6" y="253" width="42" height="24" rx="3" fill="var(--h2)"><title>long_policy, v19: 7/19</title></rect>
<rect x="855.6" y="253" width="42" height="24" rx="3" fill="var(--h2)"><title>long_policy, decider-2b v11: 8/19</title></rect>
<text x="124.56" y="295.0" text-anchor="end">ambiguous</text>
<rect x="135.6" y="279" width="42" height="24" rx="3" fill="var(--h1)"><title>ambiguous, v5: 2/7</title></rect>
<rect x="179.6" y="279" width="42" height="24" rx="3" fill="var(--h3)"><title>ambiguous, v6: 3/7</title></rect>
<rect x="223.6" y="279" width="42" height="24" rx="3" fill="var(--h1)"><title>ambiguous, v7: 1/7</title></rect>
<rect x="267.6" y="279" width="42" height="24" rx="3" fill="var(--h1)"><title>ambiguous, v8: 1/7</title></rect>
<rect x="311.6" y="279" width="42" height="24" rx="3" fill="var(--h0)"><title>ambiguous, v9: 0/7</title></rect>
<rect x="355.6" y="279" width="42" height="24" rx="3" fill="var(--h3)"><title>ambiguous, v10: 3/7</title></rect>
<rect x="399.6" y="279" width="42" height="24" rx="3" fill="var(--h1)"><title>ambiguous, v11a: 1/7</title></rect>
<rect x="443.6" y="279" width="42" height="24" rx="3" fill="var(--h0)"><title>ambiguous, v11b: 0/7</title></rect>
<rect x="487.6" y="279" width="42" height="24" rx="3" fill="var(--h1)"><title>ambiguous, v12: 1/7</title></rect>
<rect x="531.6" y="279" width="42" height="24" rx="3" fill="var(--h3)"><title>ambiguous, v13: 4/7</title></rect>
<rect x="575.6" y="279" width="42" height="24" rx="3" fill="var(--h1)"><title>ambiguous, v14: 2/7</title></rect>
<rect x="619.6" y="279" width="42" height="24" rx="3" fill="var(--h3)"><title>ambiguous, v15: 4/7</title></rect>
<rect x="663.6" y="279" width="42" height="24" rx="3" fill="var(--h3)"><title>ambiguous, v16: 3/7</title></rect>
<rect x="707.6" y="279" width="42" height="24" rx="3" fill="var(--h3)"><title>ambiguous, v17: 4/7</title></rect>
<rect x="751.6" y="279" width="42" height="24" rx="3" fill="var(--h3)"><title>ambiguous, v18: 4/7</title></rect>
<rect x="795.6" y="279" width="42" height="24" rx="3" fill="var(--h5)"><title>ambiguous, v19: 5/7</title></rect>
<rect x="855.6" y="279" width="42" height="24" rx="3" fill="var(--h3)"><title>ambiguous, decider-2b v11: 3/7</title></rect>
<text x="124.56" y="321.0" text-anchor="end">probability</text>
<rect x="135.6" y="305" width="42" height="24" rx="3" fill="var(--h2)"><title>probability, v5: 3/10</title></rect>
<rect x="179.6" y="305" width="42" height="24" rx="3" fill="var(--h1)"><title>probability, v6: 2/10</title></rect>
<rect x="223.6" y="305" width="42" height="24" rx="3" fill="var(--h2)"><title>probability, v7: 3/10</title></rect>
<rect x="267.6" y="305" width="42" height="24" rx="3" fill="var(--h2)"><title>probability, v8: 3/10</title></rect>
<rect x="311.6" y="305" width="42" height="24" rx="3" fill="var(--h1)"><title>probability, v9: 2/10</title></rect>
<rect x="355.6" y="305" width="42" height="24" rx="3" fill="var(--h1)"><title>probability, v10: 2/10</title></rect>
<rect x="399.6" y="305" width="42" height="24" rx="3" fill="var(--h1)"><title>probability, v11a: 2/10</title></rect>
<rect x="443.6" y="305" width="42" height="24" rx="3" fill="var(--h2)"><title>probability, v11b: 3/10</title></rect>
<rect x="487.6" y="305" width="42" height="24" rx="3" fill="var(--h1)"><title>probability, v12: 2/10</title></rect>
<rect x="531.6" y="305" width="42" height="24" rx="3" fill="var(--h4)"><title>probability, v13: 6/10</title></rect>
<rect x="575.6" y="305" width="42" height="24" rx="3" fill="var(--h3)"><title>probability, v14: 5/10</title></rect>
<rect x="619.6" y="305" width="42" height="24" rx="3" fill="var(--h2)"><title>probability, v15: 4/10</title></rect>
<rect x="663.6" y="305" width="42" height="24" rx="3" fill="var(--h2)"><title>probability, v16: 4/10</title></rect>
<rect x="707.6" y="305" width="42" height="24" rx="3" fill="var(--h2)"><title>probability, v17: 4/10</title></rect>
<rect x="751.6" y="305" width="42" height="24" rx="3" fill="var(--h2)"><title>probability, v18: 3/10</title></rect>
<rect x="795.6" y="305" width="42" height="24" rx="3" fill="var(--h2)"><title>probability, v19: 3/10</title></rect>
<rect x="855.6" y="305" width="42" height="24" rx="3" fill="var(--h4)"><title>probability, decider-2b v11: 7/10</title></rect>
<text x="124.56" y="347.0" text-anchor="end">temporal_numeric</text>
<rect x="135.6" y="331" width="42" height="24" rx="3" fill="var(--h1)"><title>temporal_numeric, v5: 4/15</title></rect>
<rect x="179.6" y="331" width="42" height="24" rx="3" fill="var(--h2)"><title>temporal_numeric, v6: 5/15</title></rect>
<rect x="223.6" y="331" width="42" height="24" rx="3" fill="var(--h0)"><title>temporal_numeric, v7: 2/15</title></rect>
<rect x="267.6" y="331" width="42" height="24" rx="3" fill="var(--h1)"><title>temporal_numeric, v8: 3/15</title></rect>
<rect x="311.6" y="331" width="42" height="24" rx="3" fill="var(--h0)"><title>temporal_numeric, v9: 2/15</title></rect>
<rect x="355.6" y="331" width="42" height="24" rx="3" fill="var(--h0)"><title>temporal_numeric, v10: 1/15</title></rect>
<rect x="399.6" y="331" width="42" height="24" rx="3" fill="var(--h0)"><title>temporal_numeric, v11a: 2/15</title></rect>
<rect x="443.6" y="331" width="42" height="24" rx="3" fill="var(--h0)"><title>temporal_numeric, v11b: 2/15</title></rect>
<rect x="487.6" y="331" width="42" height="24" rx="3" fill="var(--h0)"><title>temporal_numeric, v12: 2/15</title></rect>
<rect x="531.6" y="331" width="42" height="24" rx="3" fill="var(--h0)"><title>temporal_numeric, v13: 2/15</title></rect>
<rect x="575.6" y="331" width="42" height="24" rx="3" fill="var(--h1)"><title>temporal_numeric, v14: 4/15</title></rect>
<rect x="619.6" y="331" width="42" height="24" rx="3" fill="var(--h0)"><title>temporal_numeric, v15: 2/15</title></rect>
<rect x="663.6" y="331" width="42" height="24" rx="3" fill="var(--h0)"><title>temporal_numeric, v16: 2/15</title></rect>
<rect x="707.6" y="331" width="42" height="24" rx="3" fill="var(--h1)"><title>temporal_numeric, v17: 3/15</title></rect>
<rect x="751.6" y="331" width="42" height="24" rx="3" fill="var(--h0)"><title>temporal_numeric, v18: 2/15</title></rect>
<rect x="795.6" y="331" width="42" height="24" rx="3" fill="var(--h1)"><title>temporal_numeric, v19: 4/15</title></rect>
<rect x="855.6" y="331" width="42" height="24" rx="3" fill="var(--h1)"><title>temporal_numeric, decider-2b v11: 3/15</title></rect>
<text x="134.56" y="378">accuracy</text>
<rect x="134.56" y="386" width="32" height="12" rx="2" fill="var(--h0)"/>
<text class="tick" x="134.56" y="412">0.00</text>
<rect x="168.56" y="386" width="32" height="12" rx="2" fill="var(--h1)"/>
<text class="tick" x="168.56" y="412">0.14</text>
<rect x="202.56" y="386" width="32" height="12" rx="2" fill="var(--h2)"/>
<text class="tick" x="202.56" y="412">0.29</text>
<rect x="236.56" y="386" width="32" height="12" rx="2" fill="var(--h3)"/>
<text class="tick" x="236.56" y="412">0.43</text>
<rect x="270.56" y="386" width="32" height="12" rx="2" fill="var(--h4)"/>
<text class="tick" x="270.56" y="412">0.57</text>
<rect x="304.56" y="386" width="32" height="12" rx="2" fill="var(--h5)"/>
<text class="tick" x="304.56" y="412">0.71</text>
<rect x="338.56" y="386" width="32" height="12" rx="2" fill="var(--h6)"/>
<text class="tick" x="338.56" y="412">0.86</text>
<text class="tick" x="372.56" y="412">1.00</text>
</svg>
